<svg width="111" height="149" viewBox="0 0 111 149" fill="none" xmlns="http://www.w3.org/2000/svg">
<mask id="mask0" mask-type="alpha" maskUnits="userSpaceOnUse" x="0" y="0" width="111" height="149">
<path d="M111 93.0968C111 123.749 86.1518 148.597 55.5 148.597C24.8482 148.597 0 123.749 0 93.0968C0 62.445 55.5 0 55.5 0C55.5 0 111 62.445 111 93.0968Z" fill="#C4C4C4"/>
</mask>
<g mask="url(#mask0)">
<path d="M2.7054 3.58069L40.7952 35.5678H-35.3843L2.7054 3.58069Z" fill="#FF9A01"/>
<path d="M76.0092 3.58069L114.099 35.5678H37.9194L76.0092 3.58069Z" fill="#FF9A01"/>
<rect x="-107.25" y="35.5677" width="219.911" height="63.9742" fill="#FF9A01"/>
<path d="M2.7054 40.899L40.7952 72.8861H-35.3843L2.7054 40.899Z" fill="#F56C1F"/>
<path d="M76.0092 40.899L114.099 72.8861H37.9194L76.0092 40.899Z" fill="#F56C1F"/>
<rect x="-107.25" y="72.8861" width="219.911" height="63.9742" fill="#F56C1F"/>
<path d="M2.7054 72.8861L40.7952 104.873H-35.3843L2.7054 72.8861Z" fill="#E42150"/>
<path d="M76.0092 72.8861L114.099 104.873H37.9194L76.0092 72.8861Z" fill="#E42150"/>
<rect x="-107.25" y="104.873" width="219.911" height="63.9742" fill="#E42150"/>
<path d="M2.7054 110.204L40.7952 142.192H-35.3843L2.7054 110.204Z" fill="#CE206D"/>
<path d="M76.0092 110.204L114.099 142.192H37.9194L76.0092 110.204Z" fill="#CE206D"/>
<rect x="-107.25" y="142.192" width="219.911" height="63.9742" fill="#CE206D"/>
<path d="M2.7054 147.522L40.7952 179.509H-35.3843L2.7054 147.522Z" fill="#E0107D"/>
<path d="M76.0092 147.522L114.099 179.509H37.9194L76.0092 147.522Z" fill="#E0107D"/>
</g>
</svg>
