<svg width="155" height="26" viewBox="0 0 155 26" fill="none" xmlns="http://www.w3.org/2000/svg">
<path d="M39.8517 12.0602C39.6026 12.4983 39.229 12.7903 38.7308 12.9363C39.3063 13.048 39.7529 13.3315 40.0708 13.7867C40.3972 14.242 40.5604 14.7574 40.5604 15.3329C40.5604 15.7624 40.4745 16.1618 40.3027 16.5312C40.1395 16.9005 39.8904 17.214 39.5554 17.4717C39.3492 17.6006 39.1216 17.7122 38.8725 17.8067C38.6234 17.8926 38.37 17.9571 38.1123 18H34.6979V8.46538L37.6613 8.49115C38.3485 8.49115 38.9369 8.74026 39.4265 9.23846C39.9162 9.73667 40.161 10.3079 40.161 10.9521C40.161 11.3301 40.0579 11.6994 39.8517 12.0602ZM38.9627 10.7073C38.8682 10.3036 38.6535 9.99436 38.3185 9.77961C37.9921 9.55628 37.6141 9.44461 37.1846 9.44461H35.7931V12.6658H37.5712C38.0178 12.5971 38.3657 12.4167 38.6148 12.1246C38.8639 11.8326 38.9885 11.4718 38.9885 11.0423C38.9885 10.9908 38.9842 10.9306 38.9756 10.8619C38.967 10.7932 38.9627 10.7417 38.9627 10.7073ZM38.705 13.9671C38.5504 13.864 38.3786 13.7824 38.1896 13.7223C38.0006 13.6536 37.816 13.6192 37.6356 13.6192L35.7931 13.5935V17.0981L37.8675 17.0723C38.3313 17.0122 38.6964 16.8189 38.9627 16.4925C39.229 16.1661 39.3621 15.7838 39.3621 15.3458C39.3621 15.0709 39.3063 14.8175 39.1946 14.5856C39.0915 14.3537 38.9283 14.1475 38.705 13.9671ZM50.8294 18H49.7085V8.46538H50.8294V18ZM65.3504 18H60.6475V8.46538H61.8329V16.9692H65.3504V18ZM78.235 18H73.5321V8.46538H74.7175V16.9692H78.235V18ZM89.4833 18H88.3623V8.46538H89.4833V18ZM107.109 13.1683C107.109 14.577 106.611 15.7796 105.615 16.776C104.627 17.7638 103.429 18.2577 102.02 18.2577C100.594 18.2577 99.3658 17.781 98.335 16.8275C97.3128 15.8654 96.8017 14.6887 96.8017 13.2971C96.8017 11.8884 97.2956 10.6901 98.2835 9.70231C99.2799 8.7059 100.482 8.20769 101.891 8.20769C103.317 8.20769 104.541 8.68872 105.563 9.65077C106.594 10.6042 107.109 11.7767 107.109 13.1683ZM105.924 13.1425C105.924 12.0516 105.529 11.1282 104.739 10.3723C103.948 9.61641 102.999 9.23846 101.891 9.23846C100.8 9.23846 99.8769 9.63359 99.121 10.4238C98.3651 11.2141 97.9871 12.1633 97.9871 13.2713C97.9871 14.3622 98.378 15.2856 99.1596 16.0415C99.9499 16.7888 100.903 17.1625 102.02 17.1625C103.111 17.1625 104.034 16.7674 104.79 15.9771C105.546 15.1869 105.924 14.242 105.924 13.1425ZM119.015 18.2062H118.783L111.825 10.5527V18H110.756V8.23346H111.026L117.92 15.8869V8.46538H119.015V18.2062ZM130.392 10.1275L129.374 10.6042C129.28 10.2091 129.052 9.89128 128.691 9.65077C128.33 9.40167 127.935 9.27711 127.506 9.27711C127.188 9.27711 126.909 9.34154 126.668 9.47038C126.428 9.59064 126.23 9.7925 126.076 10.076C125.973 10.3079 125.921 10.5441 125.921 10.7846C125.921 11.3601 126.192 11.7939 126.733 12.086L129.181 12.9879C129.627 13.237 129.967 13.5763 130.199 14.0058C130.439 14.4267 130.559 14.8776 130.559 15.3587C130.559 15.771 130.474 16.1661 130.302 16.544C130.139 16.922 129.889 17.257 129.554 17.549C128.953 17.9699 128.279 18.1804 127.532 18.1804C126.862 18.1804 126.247 18.0129 125.689 17.6779C125.388 17.4546 125.156 17.2054 124.993 16.9306C124.839 16.6471 124.697 16.2821 124.568 15.8354L125.612 15.3071C125.612 15.8483 125.805 16.2992 126.192 16.66C126.578 17.0208 127.033 17.2012 127.557 17.2012C127.763 17.2012 127.965 17.1711 128.163 17.111C128.369 17.0422 128.567 16.9349 128.756 16.7888C128.953 16.6428 129.108 16.4453 129.219 16.1962C129.34 15.9471 129.4 15.6851 129.4 15.4102C129.4 14.9979 129.305 14.6929 129.116 14.4954C128.936 14.2978 128.79 14.1647 128.678 14.096C128.575 14.0272 128.36 13.9199 128.034 13.7738L126.385 13.194C125.895 12.9621 125.5 12.6486 125.199 12.2535C124.899 11.8497 124.748 11.3945 124.748 10.8877C124.748 10.7588 124.779 10.5269 124.839 10.1919C124.907 9.84833 125.114 9.48756 125.457 9.10961C125.801 8.73167 126.174 8.50404 126.578 8.42673C126.99 8.34083 127.355 8.29788 127.673 8.29788C127.811 8.29788 127.918 8.30218 127.995 8.31077C128.073 8.31936 128.27 8.35801 128.588 8.42673C128.914 8.48686 129.258 8.67154 129.619 8.98077C129.988 9.29 130.246 9.67224 130.392 10.1275Z" fill="white"/>
<path d="M39.8517 12.0602L39.2924 11.7406L39.2917 11.7417L39.8517 12.0602ZM38.7308 12.9363L38.5496 12.3181L38.6081 13.5688L38.7308 12.9363ZM40.0708 13.7867L39.5425 14.1555L39.5472 14.1621L40.0708 13.7867ZM40.3027 16.5312L39.7184 16.2594L39.7134 16.2708L40.3027 16.5312ZM39.5554 17.4717L39.8968 18.018L39.9234 18.0014L39.9482 17.9824L39.5554 17.4717ZM38.8725 17.8067L39.0825 18.4158L39.0918 18.4126L39.101 18.4091L38.8725 17.8067ZM38.1123 18V18.6442H38.1656L38.2182 18.6355L38.1123 18ZM34.6979 18H34.0537V18.6442H34.6979V18ZM34.6979 8.46538L34.7035 7.82118L34.0537 7.81553V8.46538H34.6979ZM37.6613 8.49115L37.6557 9.13538H37.6613V8.49115ZM39.4265 9.23846L39.886 8.7869L39.4265 9.23846ZM38.9627 10.7073H39.6069V10.6329L39.59 10.5605L38.9627 10.7073ZM38.3185 9.77961L37.9547 10.3113L37.9627 10.3168L37.9708 10.322L38.3185 9.77961ZM35.7931 9.44461V8.80038H35.1488V9.44461H35.7931ZM35.7931 12.6658H35.1488V13.31H35.7931V12.6658ZM37.5712 12.6658V13.31H37.6204L37.6691 13.3025L37.5712 12.6658ZM38.6148 12.1246L38.1247 11.7065L38.1247 11.7065L38.6148 12.1246ZM38.705 13.9671L39.1098 13.4659L39.0869 13.4474L39.0624 13.4311L38.705 13.9671ZM38.1896 13.7223L37.9695 14.3278L37.9818 14.3322L37.9943 14.3362L38.1896 13.7223ZM37.6356 13.6192L37.6266 14.2635H37.6356V13.6192ZM35.7931 13.5935L35.8021 12.9493L35.1488 12.9402V13.5935H35.7931ZM35.7931 17.0981H35.1488V17.7504L35.8011 17.7423L35.7931 17.0981ZM37.8675 17.0723L37.8755 17.7165L37.9131 17.716L37.9503 17.7112L37.8675 17.0723ZM38.9627 16.4925L38.4635 16.0853L38.4635 16.0853L38.9627 16.4925ZM39.1946 14.5856L38.6059 14.8472L38.6099 14.8562L38.6142 14.8651L39.1946 14.5856ZM39.2917 11.7417C39.1279 12.0297 38.8928 12.2175 38.5496 12.3181L38.912 13.5546C39.5652 13.3631 40.0773 12.9668 40.4118 12.3786L39.2917 11.7417ZM38.6081 13.5688C39.0294 13.6505 39.3263 13.8457 39.5425 14.1555L40.599 13.418C40.1796 12.8172 39.5831 12.4455 38.8535 12.3039L38.6081 13.5688ZM39.5472 14.1621C39.7929 14.5048 39.9162 14.8881 39.9162 15.3329H41.2046C41.2046 14.6266 41.0015 13.9792 40.5943 13.4113L39.5472 14.1621ZM39.9162 15.3329C39.9162 15.6737 39.8486 15.9798 39.7186 16.2595L40.8868 16.8028C41.1004 16.3438 41.2046 15.851 41.2046 15.3329H39.9162ZM39.7134 16.2708C39.5958 16.5369 39.4163 16.7659 39.1626 16.9611L39.9482 17.9824C40.3644 17.6622 40.6832 17.2641 40.892 16.7915L39.7134 16.2708ZM39.2139 16.9254C39.0467 17.0299 38.8574 17.1234 38.644 17.2044L39.101 18.4091C39.3858 18.3011 39.6517 18.1712 39.8968 18.018L39.2139 16.9254ZM38.6625 17.1977C38.447 17.272 38.2284 17.3275 38.0064 17.3645L38.2182 18.6355C38.5116 18.5866 38.7998 18.5133 39.0825 18.4158L38.6625 17.1977ZM38.1123 17.3558H34.6979V18.6442H38.1123V17.3558ZM35.3421 18V8.46538H34.0537V18H35.3421ZM34.6923 9.10959L37.6557 9.13536L37.6669 7.84695L34.7035 7.82118L34.6923 9.10959ZM37.6613 9.13538C38.1725 9.13538 38.5963 9.31278 38.9671 9.69002L39.886 8.7869C39.2775 8.16774 38.5245 7.84692 37.6613 7.84692V9.13538ZM38.9671 9.69002C39.3492 10.0789 39.5167 10.4918 39.5167 10.9521H40.8052C40.8052 10.1239 40.4831 9.39441 39.886 8.7869L38.9671 9.69002ZM39.5167 10.9521C39.5167 11.207 39.4486 11.4672 39.2924 11.7406L40.4111 12.3798C40.6672 11.9316 40.8052 11.4531 40.8052 10.9521H39.5167ZM39.59 10.5605C39.4591 10.0012 39.1487 9.54658 38.6661 9.23725L37.9708 10.322C38.1582 10.4421 38.2773 10.606 38.3354 10.8541L39.59 10.5605ZM38.6822 9.24793C38.2394 8.94494 37.7322 8.80038 37.1846 8.80038V10.0888C37.496 10.0888 37.7447 10.1676 37.9547 10.3113L38.6822 9.24793ZM37.1846 8.80038H35.7931V10.0888H37.1846V8.80038ZM35.1488 9.44461V12.6658H36.4373V9.44461H35.1488ZM35.7931 13.31H37.5712V12.0215H35.7931V13.31ZM37.6691 13.3025C38.24 13.2147 38.7383 12.9725 39.105 12.5427L38.1247 11.7065C37.9931 11.8608 37.7957 11.9794 37.4732 12.029L37.6691 13.3025ZM39.105 12.5427C39.4654 12.12 39.6327 11.6056 39.6327 11.0423H38.3442C38.3442 11.338 38.2624 11.5451 38.1247 11.7065L39.105 12.5427ZM39.6327 11.0423C39.6327 10.9568 39.6257 10.8689 39.6148 10.782L38.3363 10.9418C38.3426 10.9924 38.3442 11.0248 38.3442 11.0423H39.6327ZM39.6148 10.782C39.6113 10.7537 39.6091 10.7328 39.6079 10.7182C39.6066 10.7023 39.6069 10.7001 39.6069 10.7073H38.3185C38.3185 10.7834 38.327 10.8675 38.3363 10.9418L39.6148 10.782ZM39.0624 13.4311C38.8544 13.2924 38.6275 13.1856 38.3849 13.1084L37.9943 14.3362C38.1297 14.3793 38.2464 14.4356 38.3476 14.5031L39.0624 13.4311ZM38.4098 13.1169C38.1583 13.0254 37.8992 12.975 37.6356 12.975V14.2635C37.7328 14.2635 37.843 14.2818 37.9695 14.3278L38.4098 13.1169ZM37.6446 12.9751L35.8021 12.9493L35.7841 14.2376L37.6266 14.2634L37.6446 12.9751ZM35.1488 13.5935V17.0981H36.4373V13.5935H35.1488ZM35.8011 17.7423L37.8755 17.7165L37.8595 16.4281L35.7851 16.4539L35.8011 17.7423ZM37.9503 17.7112C38.5579 17.6324 39.0797 17.3683 39.4619 16.8997L38.4635 16.0853C38.3131 16.2696 38.1048 16.3919 37.7847 16.4334L37.9503 17.7112ZM39.4619 16.8997C39.826 16.4535 40.0063 15.9258 40.0063 15.3458H38.7179C38.7179 15.6419 38.632 15.8787 38.4635 16.0853L39.4619 16.8997ZM40.0063 15.3458C40.0063 14.9808 39.9315 14.6311 39.7751 14.3061L38.6142 14.8651C38.681 15.0039 38.7179 15.161 38.7179 15.3458H40.0063ZM39.7833 14.3239C39.6336 13.9871 39.402 13.702 39.1098 13.4659L38.3002 14.4683C38.4546 14.593 38.5495 14.7202 38.6059 14.8472L39.7833 14.3239ZM50.8294 18V18.6442H51.4737V18H50.8294ZM49.7085 18H49.0642V18.6442H49.7085V18ZM49.7085 8.46538V7.82115H49.0642V8.46538H49.7085ZM50.8294 8.46538H51.4737V7.82115H50.8294V8.46538ZM50.8294 17.3558H49.7085V18.6442H50.8294V17.3558ZM50.3527 18V8.46538H49.0642V18H50.3527ZM49.7085 9.10961H50.8294V7.82115H49.7085V9.10961ZM50.1852 8.46538V18H51.4737V8.46538H50.1852ZM65.3504 18V18.6442H65.9946V18H65.3504ZM60.6475 18H60.0033V18.6442H60.6475V18ZM60.6475 8.46538V7.82115H60.0033V8.46538H60.6475ZM61.8329 8.46538H62.4771V7.82115H61.8329V8.46538ZM61.8329 16.9692H61.1887V17.6135H61.8329V16.9692ZM65.3504 16.9692H65.9946V16.325H65.3504V16.9692ZM65.3504 17.3558H60.6475V18.6442H65.3504V17.3558ZM61.2917 18V8.46538H60.0033V18H61.2917ZM60.6475 9.10961H61.8329V7.82115H60.6475V9.10961ZM61.1887 8.46538V16.9692H62.4771V8.46538H61.1887ZM61.8329 17.6135H65.3504V16.325H61.8329V17.6135ZM64.7062 16.9692V18H65.9946V16.9692H64.7062ZM78.235 18V18.6442H78.8792V18H78.235ZM73.5321 18H72.8879V18.6442H73.5321V18ZM73.5321 8.46538V7.82115H72.8879V8.46538H73.5321ZM74.7175 8.46538H75.3617V7.82115H74.7175V8.46538ZM74.7175 16.9692H74.0733V17.6135H74.7175V16.9692ZM78.235 16.9692H78.8792V16.325H78.235V16.9692ZM78.235 17.3558H73.5321V18.6442H78.235V17.3558ZM74.1763 18V8.46538H72.8879V18H74.1763ZM73.5321 9.10961H74.7175V7.82115H73.5321V9.10961ZM74.0733 8.46538V16.9692H75.3617V8.46538H74.0733ZM74.7175 17.6135H78.235V16.325H74.7175V17.6135ZM77.5908 16.9692V18H78.8792V16.9692H77.5908ZM89.4833 18V18.6442H90.1275V18H89.4833ZM88.3623 18H87.7181V18.6442H88.3623V18ZM88.3623 8.46538V7.82115H87.7181V8.46538H88.3623ZM89.4833 8.46538H90.1275V7.82115H89.4833V8.46538ZM89.4833 17.3558H88.3623V18.6442H89.4833V17.3558ZM89.0065 18V8.46538H87.7181V18H89.0065ZM88.3623 9.10961H89.4833V7.82115H88.3623V9.10961ZM88.839 8.46538V18H90.1275V8.46538H88.839ZM105.615 16.776L105.159 16.3204L105.159 16.3204L105.615 16.776ZM98.335 16.8275L97.8935 17.2966L97.8975 17.3004L98.335 16.8275ZM98.2835 9.70231L97.8279 9.24677L97.8279 9.24677L98.2835 9.70231ZM105.563 9.65077L105.122 10.1199L105.126 10.1237L105.563 9.65077ZM104.739 10.3723L104.293 10.8379L104.739 10.3723ZM99.121 10.4238L98.6554 9.97854L98.6554 9.97854L99.121 10.4238ZM99.1596 16.0415L98.7117 16.5047L98.717 16.5096L99.1596 16.0415ZM104.79 15.9771L105.256 16.4224L105.256 16.4224L104.79 15.9771ZM106.465 13.1683C106.465 14.4061 106.035 15.4448 105.159 16.3204L106.07 17.2315C107.188 16.1143 107.754 14.7479 107.754 13.1683H106.465ZM105.159 16.3204C104.293 17.1863 103.259 17.6135 102.02 17.6135V18.9019C103.598 18.9019 104.961 18.3413 106.07 17.2315L105.159 16.3204ZM102.02 17.6135C100.754 17.6135 99.6821 17.196 98.7725 16.3546L97.8975 17.3004C99.0494 18.3659 100.435 18.9019 102.02 18.9019V17.6135ZM98.7765 16.3584C97.8824 15.5169 97.446 14.5093 97.446 13.2971H96.1575C96.1575 14.868 96.7432 16.214 97.8935 17.2966L98.7765 16.3584ZM97.446 13.2971C97.446 12.0576 97.8731 11.0237 98.739 10.1578L97.8279 9.24677C96.7182 10.3565 96.1575 11.7191 96.1575 13.2971H97.446ZM98.739 10.1578C99.6146 9.28221 100.653 8.85192 101.891 8.85192V7.56346C100.312 7.56346 98.9451 8.12958 97.8279 9.24677L98.739 10.1578ZM101.891 8.85192C103.156 8.85192 104.221 9.27228 105.122 10.1199L106.005 9.18164C104.861 8.10515 103.478 7.56346 101.891 7.56346V8.85192ZM105.126 10.1237C106.026 10.9565 106.465 11.9581 106.465 13.1683H107.754C107.754 11.5953 107.162 10.252 106.001 9.17784L105.126 10.1237ZM106.568 13.1425C106.568 11.8753 106.101 10.7839 105.184 9.90676L104.293 10.8379C104.957 11.4726 105.28 12.2279 105.28 13.1425H106.568ZM105.184 9.90676C104.272 9.0345 103.163 8.59423 101.891 8.59423V9.88269C102.836 9.88269 103.625 10.1983 104.293 10.8379L105.184 9.90676ZM101.891 8.59423C100.624 8.59423 99.5325 9.06158 98.6554 9.97854L99.5865 10.8692C100.221 10.2056 100.977 9.88269 101.891 9.88269V8.59423ZM98.6554 9.97854C97.7832 10.8904 97.3429 11.9998 97.3429 13.2713H98.6313C98.6313 12.3267 98.947 11.5378 99.5865 10.8692L98.6554 9.97854ZM97.3429 13.2713C97.3429 14.5362 97.8041 15.6269 98.7118 16.5046L99.6075 15.5784C98.9518 14.9444 98.6313 14.1883 98.6313 13.2713H97.3429ZM98.717 16.5096C99.6303 17.3734 100.744 17.8067 102.02 17.8067V16.5183C101.063 16.5183 100.269 16.2043 99.6023 15.5735L98.717 16.5096ZM102.02 17.8067C103.287 17.8067 104.379 17.3394 105.256 16.4224L104.325 15.5318C103.69 16.1954 102.935 16.5183 102.02 16.5183V17.8067ZM105.256 16.4224C106.127 15.5116 106.568 14.4069 106.568 13.1425H105.28C105.28 14.0771 104.965 14.8622 104.325 15.5318L105.256 16.4224ZM119.015 18.2062V18.8504H119.659V18.2062H119.015ZM118.783 18.2062L118.306 18.6395L118.498 18.8504H118.783V18.2062ZM111.825 10.5527L112.302 10.1193L111.181 8.88632V10.5527H111.825ZM111.825 18V18.6442H112.469V18H111.825ZM110.756 18H110.112V18.6442H110.756V18ZM110.756 8.23346V7.58923H110.112V8.23346H110.756ZM111.026 8.23346L111.505 7.80232L111.313 7.58923H111.026V8.23346ZM117.92 15.8869L117.441 16.3181L118.564 17.5648V15.8869H117.92ZM117.92 8.46538V7.82115H117.275V8.46538H117.92ZM119.015 8.46538H119.659V7.82115H119.015V8.46538ZM119.015 17.5619H118.783V18.8504H119.015V17.5619ZM119.26 17.7728L112.302 10.1193L111.349 10.986L118.306 18.6395L119.26 17.7728ZM111.181 10.5527V18H112.469V10.5527H111.181ZM111.825 17.3558H110.756V18.6442H111.825V17.3558ZM111.4 18V8.23346H110.112V18H111.4ZM110.756 8.87769H111.026V7.58923H110.756V8.87769ZM110.548 8.66461L117.441 16.3181L118.398 15.4558L111.505 7.80232L110.548 8.66461ZM118.564 15.8869V8.46538H117.275V15.8869H118.564ZM117.92 9.10961H119.015V7.82115H117.92V9.10961ZM118.371 8.46538V18.2062H119.659V8.46538H118.371ZM130.392 10.1275L130.665 10.7109L131.179 10.4705L131.005 9.93073L130.392 10.1275ZM129.374 10.6042L128.747 10.7541L128.931 11.523L129.647 11.1876L129.374 10.6042ZM128.691 9.65077L128.325 10.181L128.334 10.1868L128.691 9.65077ZM126.668 9.47038L126.956 10.0466L126.964 10.0425L126.972 10.0383L126.668 9.47038ZM126.076 10.076L125.51 9.76747L125.497 9.79042L125.487 9.81431L126.076 10.076ZM126.733 12.086L126.427 12.6529L126.467 12.6746L126.51 12.6905L126.733 12.086ZM129.181 12.9879L129.495 12.4252L129.451 12.4008L129.403 12.3834L129.181 12.9879ZM130.199 14.0058L129.632 14.3119L129.635 14.3187L129.639 14.3254L130.199 14.0058ZM130.302 16.544L129.715 16.2774L129.71 16.2886L130.302 16.544ZM129.554 17.549L129.924 18.0768L129.952 18.0572L129.978 18.0346L129.554 17.549ZM125.689 17.6779L125.305 18.195L125.33 18.214L125.358 18.2303L125.689 17.6779ZM124.993 16.9306L124.428 17.2391L124.433 17.2494L124.439 17.2595L124.993 16.9306ZM124.568 15.8354L124.277 15.2606L123.801 15.5015L123.949 16.0139L124.568 15.8354ZM125.612 15.3071H126.256V14.259L125.321 14.7323L125.612 15.3071ZM126.192 16.66L125.752 17.131L125.752 17.131L126.192 16.66ZM128.163 17.111L128.35 17.7273L128.359 17.7248L128.367 17.7221L128.163 17.111ZM128.756 16.7888L128.373 16.2707L128.362 16.2791L128.756 16.7888ZM129.219 16.1962L128.639 15.9161L128.635 15.9243L128.632 15.9326L129.219 16.1962ZM129.116 14.4954L128.641 14.9298L128.646 14.9353L128.651 14.9407L129.116 14.4954ZM128.678 14.096L128.321 14.632L128.331 14.6385L128.341 14.6446L128.678 14.096ZM128.034 13.7738L128.297 13.1858L128.273 13.1749L128.248 13.1661L128.034 13.7738ZM126.385 13.194L126.109 13.7763L126.139 13.7907L126.171 13.8018L126.385 13.194ZM125.199 12.2535L124.683 12.6383L124.687 12.6436L125.199 12.2535ZM124.839 10.1919L124.207 10.0656L124.205 10.0781L124.839 10.1919ZM125.457 9.10961L124.98 8.67626L124.98 8.67626L125.457 9.10961ZM126.578 8.42673L126.699 9.05955L126.709 9.05742L126.578 8.42673ZM127.995 8.31077L127.924 8.95106L127.924 8.95106L127.995 8.31077ZM128.588 8.42673L128.452 9.05641L128.462 9.05851L128.471 9.0603L128.588 8.42673ZM129.619 8.98077L129.2 9.46994L129.205 9.47474L129.619 8.98077ZM130.119 9.54409L129.101 10.0208L129.647 11.1876L130.665 10.7109L130.119 9.54409ZM130.001 10.4544C129.866 9.88991 129.535 9.43877 129.049 9.11474L128.334 10.1868C128.569 10.3438 128.693 10.5283 128.747 10.7541L130.001 10.4544ZM129.057 9.12063C128.591 8.79888 128.069 8.63288 127.506 8.63288V9.92135C127.802 9.92135 128.07 10.0045 128.325 10.1809L129.057 9.12063ZM127.506 8.63288C127.099 8.63288 126.712 8.71585 126.364 8.90251L126.972 10.0383C127.105 9.96723 127.277 9.92135 127.506 9.92135V8.63288ZM126.38 8.89417C126 9.08424 125.715 9.39217 125.51 9.76747L126.641 10.3845C126.746 10.1928 126.855 10.097 126.956 10.0466L126.38 8.89417ZM125.487 9.81431C125.349 10.124 125.277 10.449 125.277 10.7846H126.565C126.565 10.6392 126.596 10.4918 126.664 10.3376L125.487 9.81431ZM125.277 10.7846C125.277 11.1773 125.37 11.5509 125.577 11.8825C125.783 12.2119 126.078 12.4645 126.427 12.6529L127.039 11.519C126.847 11.4154 126.736 11.305 126.671 11.2006C126.607 11.0985 126.565 10.9674 126.565 10.7846H125.277ZM126.51 12.6905L128.958 13.5924L129.403 12.3834L126.955 11.4815L126.51 12.6905ZM128.867 13.5505C129.212 13.7429 129.461 13.9955 129.632 14.3119L130.766 13.6997C130.473 13.157 130.043 12.731 129.495 12.4252L128.867 13.5505ZM129.639 14.3254C129.825 14.6497 129.915 14.9907 129.915 15.3587H131.204C131.204 14.7646 131.054 14.2036 130.758 13.6861L129.639 14.3254ZM129.915 15.3587C129.915 15.6783 129.849 15.9826 129.715 16.2775L130.888 16.8106C131.098 16.3496 131.204 15.8636 131.204 15.3587H129.915ZM129.71 16.2886C129.588 16.5714 129.399 16.8295 129.131 17.0634L129.978 18.0346C130.379 17.6845 130.689 17.2726 130.893 16.7994L129.71 16.2886ZM129.185 17.0213C128.694 17.3649 128.149 17.5362 127.532 17.5362V18.8246C128.408 18.8246 129.212 18.575 129.924 18.0768L129.185 17.0213ZM127.532 17.5362C126.975 17.5362 126.476 17.3986 126.02 17.1255L125.358 18.2303C126.019 18.6272 126.748 18.8246 127.532 18.8246V17.5362ZM126.073 17.1607C125.829 16.9797 125.66 16.7917 125.547 16.6017L124.439 17.2595C124.653 17.6192 124.947 17.9294 125.305 18.195L126.073 17.1607ZM125.559 16.6221C125.434 16.3935 125.308 16.0763 125.187 15.6568L123.949 16.0139C124.086 16.4878 124.243 16.9007 124.428 17.2391L125.559 16.6221ZM124.859 16.4102L125.903 15.8819L125.321 14.7323L124.277 15.2606L124.859 16.4102ZM124.968 15.3071C124.968 16.0221 125.231 16.6452 125.752 17.131L126.631 16.189C126.379 15.9533 126.256 15.6744 126.256 15.3071H124.968ZM125.752 17.131C126.257 17.602 126.869 17.8454 127.557 17.8454V16.5569C127.198 16.5569 126.9 16.4396 126.631 16.189L125.752 17.131ZM127.557 17.8454C127.827 17.8454 128.092 17.8059 128.35 17.7273L127.975 16.4946C127.838 16.5363 127.7 16.5569 127.557 16.5569V17.8454ZM128.367 17.7221C128.648 17.6284 128.909 17.4845 129.149 17.2986L128.362 16.2791C128.224 16.3852 128.09 16.4561 127.959 16.4998L128.367 17.7221ZM129.139 17.3069C129.435 17.088 129.655 16.7984 129.807 16.4597L128.632 15.9326C128.56 16.0922 128.472 16.1977 128.373 16.2708L129.139 17.3069ZM129.8 16.4762C129.962 16.1404 130.044 15.7827 130.044 15.4102H128.756C128.756 15.5874 128.718 15.7537 128.639 15.9161L129.8 16.4762ZM130.044 15.4102C130.044 14.9146 129.932 14.4162 129.582 14.0501L128.651 14.9407C128.679 14.9697 128.756 15.0812 128.756 15.4102H130.044ZM129.592 14.061C129.404 13.8551 129.208 13.6656 129.016 13.5473L128.341 14.6446C128.372 14.6638 128.468 14.7405 128.641 14.9298L129.592 14.061ZM129.036 13.5599C128.881 13.4565 128.617 13.3287 128.297 13.1858L127.771 14.3619C128.104 14.511 128.27 14.598 128.321 14.632L129.036 13.5599ZM128.248 13.1661L126.598 12.5863L126.171 13.8018L127.82 14.3816L128.248 13.1661ZM126.661 12.6118C126.256 12.4199 125.945 12.1691 125.712 11.8634L124.687 12.6436C125.055 13.1281 125.535 13.5043 126.109 13.7763L126.661 12.6118ZM125.716 11.8687C125.499 11.577 125.393 11.2569 125.393 10.8877H124.104C124.104 11.5321 124.299 12.1225 124.683 12.6382L125.716 11.8687ZM125.393 10.8877C125.393 10.8238 125.412 10.6449 125.473 10.3057L124.205 10.0781C124.145 10.409 124.104 10.6939 124.104 10.8877H125.393ZM125.47 10.3183C125.508 10.13 125.635 9.87166 125.934 9.54297L124.98 8.67626C124.592 9.10347 124.307 9.56666 124.207 10.0656L125.47 10.3183ZM125.934 9.54297C126.207 9.24275 126.463 9.10474 126.699 9.05946L126.457 7.794C125.886 7.90334 125.395 8.22058 124.98 8.67626L125.934 9.54297ZM126.709 9.05742C127.092 8.97781 127.411 8.94211 127.673 8.94211V7.65365C127.3 7.65365 126.889 7.70385 126.447 7.79604L126.709 9.05742ZM127.673 8.94211C127.802 8.94211 127.882 8.94635 127.924 8.95106L128.067 7.67048C127.954 7.65801 127.819 7.65365 127.673 7.65365V8.94211ZM127.924 8.95106C127.923 8.95095 127.926 8.95127 127.934 8.9525C127.942 8.95368 127.953 8.95539 127.967 8.95777C127.995 8.96256 128.031 8.96935 128.078 8.97844C128.171 8.99662 128.295 9.02248 128.452 9.05641L128.724 7.79705C128.419 7.73115 128.184 7.68356 128.067 7.67048L127.924 8.95106ZM128.471 9.0603C128.648 9.09281 128.89 9.20456 129.2 9.4699L130.038 8.49163C129.626 8.13852 129.181 7.8809 128.705 7.79316L128.471 9.0603ZM129.205 9.47474C129.482 9.70641 129.67 9.98591 129.778 10.3243L131.005 9.93073C130.822 9.35858 130.494 8.87359 130.032 8.4868L129.205 9.47474Z" fill="white"/>
<path fill-rule="evenodd" clip-rule="evenodd" d="M4.0791 4.85913H5.39238V18.0397C5.45667 19.1648 6.24117 21.8676 8.87445 23.3997C12.2059 25.338 16.4607 24.4881 18.8217 21.8245C21.1488 19.1991 20.6968 16.0829 20.0075 14.1403C19.3419 12.2646 17.655 9.97644 14.3886 9.31105L14.7823 8.07665C18.6075 8.85587 20.4662 11.5057 21.2452 13.7011C22.0005 15.8297 22.5992 19.5426 19.8045 22.6956C17.0437 25.8103 12.1056 26.799 8.21402 24.5348C5.08153 22.7123 4.15362 19.5153 4.07998 18.0915L4.0791 18.0745V4.85913Z" fill="url(#paint0_linear)"/>
<path fill-rule="evenodd" clip-rule="evenodd" d="M13.6591 1.31327H0.139497V0H13.6727L13.6791 0.000126183C14.3915 0.0140954 15.4493 0.346481 16.3351 1.05949C17.2475 1.79385 18 2.95243 18 4.59646C18 7.68811 16.0322 9.38991 14.5199 9.38991H1.32144V17.9541L1.31908 17.9819C1.28647 18.3651 1.38118 18.9617 1.76495 19.4486C2.12624 19.9071 2.81264 20.3558 4.14499 20.3558H13.2661C13.791 20.3455 14.5628 20.1804 15.1865 19.7159C15.7798 19.2739 16.2928 18.5244 16.2928 17.2039C16.2928 14.5152 14.5466 13.6581 13.6662 13.6581H5.3926V12.3448H13.6662C15.2811 12.3448 17.6061 13.799 17.6061 17.2039C17.6061 18.9302 16.9042 20.074 15.9709 20.7691C15.07 21.4401 14.0064 21.6563 13.2838 21.6689L13.278 21.669H4.14499C2.48307 21.669 1.3856 21.089 0.733483 20.2615C0.113413 19.4747 -0.0397824 18.5448 0.00816958 17.9002V8.07664H14.5199C15.1088 8.07664 16.6868 7.17817 16.6868 4.59646C16.6868 3.40382 16.1588 2.60343 15.5117 2.08252C14.8412 1.54282 14.0646 1.32314 13.6591 1.31327Z" fill="url(#paint1_linear)"/>
<path d="M5.39258 12.3448H7.09984V13.6581H5.39258V12.3448Z" fill="url(#paint2_linear)"/>
<path d="M5.39258 9.38989L5.39258 11.0315L4.0793 11.0315L4.0793 9.3899L5.39258 9.38989Z" fill="url(#paint3_linear)"/>
<defs>
<linearGradient id="paint0_linear" x1="0.664588" y1="0.328333" x2="14.5196" y2="22.26" gradientUnits="userSpaceOnUse">
<stop stop-color="#ECCF72"/>
<stop offset="1" stop-color="#A98536"/>
</linearGradient>
<linearGradient id="paint1_linear" x1="0.467815" y1="0.328319" x2="19.7073" y2="23.1136" gradientUnits="userSpaceOnUse">
<stop stop-color="#ECCF72"/>
<stop offset="1" stop-color="#A88436"/>
</linearGradient>
<linearGradient id="paint2_linear" x1="5.39258" y1="12.9358" x2="7.49382" y2="12.9358" gradientUnits="userSpaceOnUse">
<stop stop-color="#CAAA54"/>
<stop offset="1" stop-color="#CAAA54" stop-opacity="0"/>
</linearGradient>
<linearGradient id="paint3_linear" x1="4.8016" y1="9.32423" x2="4.8016" y2="11.4255" gradientUnits="userSpaceOnUse">
<stop stop-color="#A58634"/>
<stop offset="1" stop-color="#CAAA54" stop-opacity="0"/>
</linearGradient>
</defs>
</svg>
