<svg width="25" height="25" viewBox="0 0 25 25" fill="none" xmlns="http://www.w3.org/2000/svg">
<path fill-rule="evenodd" clip-rule="evenodd" d="M12.5 25C19.4033 25 25 19.4036 25 12.5C25 5.59644 19.4033 0 12.5 0C5.59668 0 0 5.59644 0 12.5C0 19.4036 5.59668 25 12.5 25ZM20.8516 17.0879C21.3438 16.3922 20.5176 15.2977 19.7471 15.3719C17.0825 15.6223 14.335 14.7319 12.3018 12.6912C10.2593 10.6598 9.36816 7.90488 9.61865 5.25198C9.69287 4.48212 8.59766 3.65656 7.90137 4.14816C7.4834 4.44501 7.09375 4.77893 6.72217 5.14996C3.09277 8.76752 3.09277 14.6484 6.72217 18.266C10.3428 21.9113 16.2192 21.9113 19.8491 18.266C20.2388 17.8949 20.5547 17.5053 20.8516 17.0879Z" fill="url(#paint0_linear)"/>
<path fill-rule="evenodd" clip-rule="evenodd" d="M12.5 25C19.4033 25 25 19.4036 25 12.5C25 5.59644 19.4033 0 12.5 0C5.59668 0 0 5.59644 0 12.5C0 19.4036 5.59668 25 12.5 25ZM20.8516 17.0879C21.3438 16.3922 20.5176 15.2977 19.7471 15.3719C17.0825 15.6223 14.335 14.7319 12.3018 12.6912C10.2593 10.6598 9.36816 7.90488 9.61865 5.25198C9.69287 4.48212 8.59766 3.65656 7.90137 4.14816C7.4834 4.44501 7.09375 4.77893 6.72217 5.14996C3.09277 8.76752 3.09277 14.6484 6.72217 18.266C10.3428 21.9113 16.2192 21.9113 19.8491 18.266C20.2388 17.8949 20.5547 17.5053 20.8516 17.0879Z" fill="url(#paint1_linear)"/>
<defs>
<linearGradient id="paint0_linear" x1="-5.42402e-08" y1="13" x2="25.5" y2="13" gradientUnits="userSpaceOnUse">
<stop stop-color="#ECCF72"/>
<stop offset="1" stop-color="#AA8638"/>
</linearGradient>
<linearGradient id="paint1_linear" x1="-5.42402e-08" y1="13" x2="25.5" y2="13" gradientUnits="userSpaceOnUse">
<stop stop-color="#ECCF72"/>
<stop offset="1" stop-color="#AA8638"/>
</linearGradient>
</defs>
</svg>
